PathFileType	4	(X/Y/Z) abd_0kg_2.trc																										
DataRate	CameraRate	NumFrames	NumMarkers	Units	OrigDataRate	OrigDataStartFrame	OrigNumFrames																					
100	100	54	9	mm	100	318	846																					
Frame#	Time	gu			centelbow			EpL			centpxt8			centijc7			ij			ts			aa			ai		
		X1	Y1	Z1	X2	Y2	Z2	X3	Y3	Z3	X4	Y4	Z4	X5	Y5	Z5	X6	Y6	Z6	X7	Y7	Z7	X8	Y8	Z8	X9	Y9	Z9  
317	3.17	-112.295	71.061	101.365	-100.719	290.085	214.85	-119.869	299.18	190.561	-46.816	-153.158	-8.669	-46.816	31.938	-8.669	0	0	0	-140.098	-18.637	47.144	-158.825	88.516	96.056	-146.229	-61.757	151.971
318	3.18	-112.395	71.075	101.639	-98.629	290.689	213.73	-117.929	299.751	189.548	-46.816	-153.158	-8.669	-46.816	31.938	-8.669	0	0	0	-140.262	-18.756	47.712	-158.686	88.562	96.376	-146.095	-61.565	152.684
319	3.19	-112.383	71.16	101.578	-96.41	291.344	212.251	-115.874	300.372	188.186	-46.816	-153.158	-8.669	-46.816	31.938	-8.669	0	0	0	-140.463	-19.065	48.24	-158.57	88.421	96.652	-146.006	-61.56	153.355
320	3.2	-112.561	71.269	101.131	-94.399	291.994	210.377	-114.026	300.992	186.434	-46.816	-153.158	-8.669	-46.816	31.938	-8.669	0	0	0	-140.823	-19.351	48.482	-158.618	88.288	96.669	-146.06	-61.558	153.729
321	3.21	-112.899	71.106	100.687	-92.538	292.281	208.63	-112.306	301.271	184.801	-46.816	-153.158	-8.669	-46.816	31.938	-8.669	0	0	0	-141.137	-19.347	48.459	-158.639	88.425	96.456	-146.032	-61.299	153.823
322	3.22	-113.104	70.658	100.459	-90.553	292.149	207.311	-110.438	301.166	183.589	-46.816	-153.158	-8.669	-46.816	31.938	-8.669	0	0	0	-141.258	-19.217	48.509	-158.459	88.677	96.34	-145.833	-60.941	153.979
323	3.23	-113.069	70.245	100.332	-88.387	291.969	206.224	-108.382	301.025	182.61	-46.816	-153.158	-8.669	-46.816	31.938	-8.669	0	0	0	-141.359	-19.424	48.947	-158.196	88.601	96.61	-145.709	-60.926	154.513
324	3.24	-112.963	70.065	100.231	-86.202	292.006	205.162	-106.312	301.099	181.66	-46.816	-153.158	-8.669	-46.816	31.938	-8.669	0	0	0	-141.599	-19.953	49.552	-158.015	88.213	97.044	-145.765	-61.231	155.214
325	3.25	-112.88	70.149	100.056	-84.059	292.315	203.958	-104.294	301.437	180.576	-46.816	-153.158	-8.669	-46.816	31.938	-8.669	0	0	0	-141.925	-20.293	49.774	-157.928	87.999	97.119	-145.812	-61.362	155.528
326	3.26	-112.756	70.405	99.645	-81.897	292.82	202.426	-102.258	301.962	179.161	-46.816	-153.158	-8.669	-46.816	31.938	-8.669	0	0	0	-142.238	-20.241	49.506	-157.872	88.152	96.743	-145.739	-61.134	155.342
327	3.27	-112.637	70.589	99.101	-79.806	293.264	200.7	-100.27	302.423	177.532	-46.816	-153.158	-8.669	-46.816	31.938	-8.669	0	0	0	-142.486	-20.001	49.147	-157.799	88.48	96.287	-145.613	-60.734	155.056
328	3.28	-112.611	70.526	98.745	-77.949	293.434	199.218	-98.461	302.619	176.102	-46.816	-153.158	-8.669	-46.816	31.938	-8.669	0	0	0	-142.645	-19.679	48.965	-157.691	88.891	95.985	-145.492	-60.247	154.945
329	3.29	-112.586	70.37	98.62	-76.322	293.463	198.112	-96.826	302.682	175.002	-46.816	-153.158	-8.669	-46.816	31.938	-8.669	0	0	0	-142.662	-19.329	48.885	-157.489	89.324	95.784	-145.3	-59.741	154.93
330	3.3	-112.483	70.298	98.457	-74.845	293.535	197.114	-95.312	302.789	173.986	-46.816	-153.158	-8.669	-46.816	31.938	-8.669	0	0	0	-142.538	-19.14	48.778	-157.149	89.579	95.59	-144.988	-59.434	154.873
331	3.31	-112.433	70.164	98.162	-73.539	293.497	196.112	-93.967	302.79	172.966	-46.816	-153.158	-8.669	-46.816	31.938	-8.669	0	0	0	-142.506	-19.192	48.637	-156.865	89.586	95.392	-144.778	-59.395	154.77
332	3.32	-112.567	69.784	97.888	-72.459	293.139	195.297	-92.854	302.484	172.141	-46.816	-153.158	-8.669	-46.816	31.938	-8.669	0	0	0	-142.793	-19.361	48.546	-156.871	89.48	95.239	-144.928	-59.473	154.716
333	3.33	-112.789	69.148	97.834	-71.538	292.436	194.917	-91.899	301.85	171.76	-46.816	-153.158	-8.669	-46.816	31.938	-8.669	0	0	0	-143.266	-19.588	48.618	-157.077	89.315	95.245	-145.33	-59.613	154.823
334	3.34	-112.828	68.345	98.205	-70.522	291.525	195.082	-90.849	301.011	171.925	-46.816	-153.158	-8.669	-46.816	31.938	-8.669	0	0	0	-143.644	-19.849	48.836	-157.231	89.105	95.411	-145.663	-59.807	155.066
335	3.35	-112.535	67.663	98.907	-69.264	290.786	195.487	-89.566	300.327	172.331	-46.816	-153.158	-8.669	-46.816	31.938	-8.669	0	0	0	-143.817	-19.962	49.009	-157.22	89.034	95.54	-145.733	-59.856	155.265
336	3.36	-112.173	67.399	99.435	-68.044	290.546	195.572	-88.342	300.114	172.423	-46.816	-153.158	-8.669	-46.816	31.938	-8.669	0	0	0	-143.865	-19.825	49.074	-157.108	89.209	95.561	-145.598	-59.649	155.359
337	3.37	-112.065	67.47	99.474	-67.175	290.65	195.182	-87.485	300.236	172.05	-46.816	-153.158	-8.669	-46.816	31.938	-8.669	0	0	0	-143.962	-19.672	49.156	-157.033	89.395	95.614	-145.49	-59.44	155.466
338	3.38	-112.16	67.571	99.269	-66.53	290.722	194.693	-86.854	300.339	171.587	-46.816	-153.158	-8.669	-46.816	31.938	-8.669	0	0	0	-144.184	-19.734	49.278	-157.036	89.363	95.726	-145.529	-59.464	155.605
339	3.39	-112.262	67.54	99.159	-65.829	290.592	194.427	-86.167	300.26	171.355	-46.816	-153.158	-8.669	-46.816	31.938	-8.669	0	0	0	-144.373	-19.888	49.369	-156.977	89.241	95.81	-145.547	-59.583	155.711
340	3.4	-112.356	67.388	99.169	-65.009	290.294	194.33	-85.379	300.023	171.312	-46.816	-153.158	-8.669	-46.816	31.938	-8.669	0	0	0	-144.4	-19.935	49.453	-156.776	89.219	95.896	-145.401	-59.605	155.806
341	3.41	-112.535	67.258	99.153	-64.185	290.002	194.189	-84.621	299.795	171.257	-46.816	-153.158	-8.669	-46.816	31.938	-8.669	0	0	0	-144.419	-19.903	49.604	-156.592	89.266	96.068	-145.259	-59.569	155.96
342	3.42	-112.788	67.369	99.044	-63.401	289.962	193.899	-83.943	299.811	171.085	-46.816	-153.158	-8.669	-46.816	31.938	-8.669	0	0	0	-144.617	-19.909	49.811	-156.58	89.269	96.305	-145.319	-59.584	156.165
343	3.43	-112.972	67.71	98.903	-62.561	290.177	193.517	-83.225	300.073	170.835	-46.816	-153.158	-8.669	-46.816	31.938	-8.669	0	0	0	-144.942	-19.964	50.001	-156.665	89.228	96.526	-145.509	-59.646	156.353
344	3.44	-113.016	68	98.688	-61.636	290.376	192.992	-82.414	300.31	170.431	-46.816	-153.158	-8.669	-46.816	31.938	-8.669	0	0	0	-145.188	-19.968	50.094	-156.641	89.237	96.655	-145.583	-59.66	156.443
345	3.45	-113.016	68.091	98.202	-60.803	290.441	192.108	-81.669	300.396	169.638	-46.816	-153.158	-8.669	-46.816	31.938	-8.669	0	0	0	-145.225	-19.879	50.025	-156.386	89.339	96.626	-145.393	-59.58	156.371
346	3.46	-113.031	68.029	97.543	-60.199	290.417	191.011	-81.115	300.376	168.588	-46.816	-153.158	-8.669	-46.816	31.938	-8.669	0	0	0	-145.193	-19.79	49.819	-156.067	89.445	96.449	-145.109	-59.488	156.166
347	3.47	-112.967	67.762	97.181	-59.714	290.197	190.3	-80.631	300.158	167.88	-46.816	-153.158	-8.669	-46.816	31.938	-8.669	0	0	0	-145.345	-19.83	49.62	-155.973	89.426	96.257	-145.051	-59.51	155.973
348	3.48	-112.739	67.32	97.325	-59.218	289.762	190.273	-80.098	299.734	167.823	-46.816	-153.158	-8.669	-46.816	31.938	-8.669	0	0	0	-145.597	-19.942	49.566	-156.052	89.335	96.19	-145.169	-59.594	155.929
349	3.49	-112.384	67.018	97.685	-58.759	289.453	190.591	-79.589	299.436	168.1	-46.816	-153.158	-8.669	-46.816	31.938	-8.669	0	0	0	-145.594	-19.936	49.695	-155.959	89.364	96.288	-145.094	-59.549	156.072
350	3.5	-112.039	67.014	97.967	-58.432	289.46	190.858	-79.226	299.444	168.333	-46.816	-153.158	-8.669	-46.816	31.938	-8.669	0	0	0	-145.3	-19.753	49.916	-155.614	89.566	96.474	-144.749	-59.326	156.309
351	3.51	-111.901	67.046	98.139	-58.274	289.495	191.008	-79.044	299.482	168.462	-46.816	-153.158	-8.669	-46.816	31.938	-8.669	0	0	0	-145.126	-19.501	50.008	-155.352	89.836	96.545	-144.492	-59.045	156.411
352	3.52	-112.041	66.917	98.174	-58.222	289.336	191.005	-78.984	299.337	168.458	-46.816	-153.158	-8.669	-46.816	31.938	-8.669	0	0	0	-145.384	-19.273	49.806	-155.439	90.078	96.347	-144.605	-58.804	156.212
353	3.53	-112.28	66.776	98.004	-58.122	289.151	190.741	-78.9	299.17	168.217	-46.816	-153.158	-8.669	-46.816	31.938	-8.669	0	0	0	-145.891	-19.14	49.512	-155.699	90.217	96.089	-144.935	-58.688	155.911
354	3.54	-112.367	66.77	97.765	-57.82	289.122	190.329	-78.635	299.154	167.845	-46.816	-153.158	-8.669	-46.816	31.938	-8.669	0	0	0	-146.247	-19.256	49.547	-155.766	90.104	96.179	-145.148	-58.839	155.931
355	3.55	-112.21	66.836	97.71	-57.302	289.191	190.056	-78.161	299.227	167.615	-46.816	-153.158	-8.669	-46.816	31.938	-8.669	0	0	0	-146.375	-19.644	49.92	-155.62	89.725	96.588	-145.174	-59.249	156.295
356	3.56	-111.929	66.913	97.889	-56.735	289.284	190.025	-77.634	299.319	167.621	-46.816	-153.158	-8.669	-46.816	31.938	-8.669	0	0	0	-146.525	-20.04	50.238	-155.588	89.346	96.9	-145.228	-59.629	156.618
357	3.57	-111.74	67.097	98.068	-56.349	289.496	190.018	-77.285	299.526	167.647	-46.816	-153.158	-8.669	-46.816	31.938	-8.669	0	0	0	-146.773	-20.157	50.301	-155.781	89.247	96.931	-145.371	-59.706	156.695
358	3.58	-111.739	67.431	98.008	-56.217	289.875	189.771	-77.195	299.893	167.434	-46.816	-153.158	-8.669	-46.816	31.938	-8.669	0	0	0	-146.825	-19.886	50.105	-155.879	89.532	96.695	-145.301	-59.388	156.514
359	3.59	-111.824	67.695	97.808	-56.159	290.179	189.386	-77.182	300.186	167.086	-46.816	-153.158	-8.669	-46.816	31.938	-8.669	0	0	0	-146.529	-19.371	49.711	-155.664	90.053	96.27	-144.866	-58.833	156.132
360	3.6	-111.894	67.686	97.729	-56.016	290.177	189.162	-77.08	300.183	166.899	-46.816	-153.158	-8.669	-46.816	31.938	-8.669	0	0	0	-146.222	-19.01	49.433	-155.394	90.414	95.984	-144.447	-58.456	155.859
361	3.61	-111.992	67.49	97.771	-55.86	289.963	189.092	-76.956	299.977	166.864	-46.816	-153.158	-8.669	-46.816	31.938	-8.669	0	0	0	-146.235	-19.093	49.513	-155.357	90.328	96.084	-144.416	-58.554	155.932
362	3.62	-112.129	67.277	97.754	-55.751	289.737	188.955	-76.873	299.758	166.755	-46.816	-153.158	-8.669	-46.816	31.938	-8.669	0	0	0	-146.436	-19.482	49.724	-155.434	89.936	96.326	-144.609	-58.971	156.134
363	3.63	-112.2	67.143	97.628	-55.643	289.609	188.701	-76.782	299.632	166.518	-46.816	-153.158	-8.669	-46.816	31.938	-8.669	0	0	0	-146.565	-19.841	49.777	-155.425	89.582	96.393	-144.717	-59.34	156.182
364	3.64	-112.234	67.133	97.493	-55.593	289.613	188.479	-76.74	299.634	166.302	-46.816	-153.158	-8.669	-46.816	31.938	-8.669	0	0	0	-146.66	-19.988	49.696	-155.416	89.445	96.307	-144.767	-59.478	156.104
365	3.65	-112.366	67.172	97.413	-55.681	289.647	188.384	-76.826	299.671	166.207	-46.816	-153.158	-8.669	-46.816	31.938	-8.669	0	0	0	-146.839	-19.904	49.554	-155.533	89.533	96.168	-144.881	-59.391	155.962
366	3.66	-112.51	67.13	97.367	-55.747	289.576	188.363	-76.887	299.609	166.185	-46.816	-153.158	-8.669	-46.816	31.938	-8.669	0	0	0	-146.985	-19.649	49.346	-155.621	89.781	95.986	-144.93	-59.154	155.745
367	3.67	-112.467	67.001	97.332	-55.601	289.411	188.349	-76.736	299.457	166.172	-46.816	-153.158	-8.669	-46.816	31.938	-8.669	0	0	0	-146.98	-19.418	49.185	-155.529	90	95.869	-144.825	-58.958	155.569
368	3.68	-112.316	66.832	97.33	-55.377	289.216	188.366	-76.505	299.271	166.187	-46.816	-153.158	-8.669	-46.816	31.938	-8.669	0	0	0	-146.992	-19.429	49.198	-155.411	89.978	95.932	-144.79	-59.013	155.564
369	3.69	-112.281	66.643	97.394	-55.328	289.01	188.463	-76.444	299.07	166.275	-46.816	-153.158	-8.669	-46.816	31.938	-8.669	0	0	0	-147.175	-19.676	49.306	-155.465	89.724	96.079	-145.002	-59.299	155.658
370	3.7	-112.32	66.463	97.461	-55.409	288.828	188.561	-76.513	298.89	166.361	-46.816	-153.158	-8.669	-46.816	31.938	-8.669	0	0	0	-147.368	-19.963	49.315	-155.59	89.437	96.1	-145.254	-59.602	155.663
